<?xml version="1.0" encoding="UTF-8"?>
<!DOCTYPE svg PUBLIC "-//W3C//DTD SVG 1.1//EN" "http://www.w3.org/Graphics/SVG/1.1/DTD/svg11.dtd">
<!-- Creator: CorelDRAW X6 -->
<svg xmlns="http://www.w3.org/2000/svg" xml:space="preserve" width="56mm" height="25mm" version="1.1" shape-rendering="geometricPrecision" text-rendering="geometricPrecision" image-rendering="optimizeQuality" fill-rule="evenodd" clip-rule="evenodd"
viewBox="0 0 5600 2500"
 xmlns:xlink="http://www.w3.org/1999/xlink">
 <g id="Layer_x0020_1">
  <metadata id="CorelCorpID_0Corel-Layer"/>
  <g id="_847674256">
   <path fill="#009EE0" d="M1477 1717c14,-39 21,-81 21,-128 0,-135 -65,-240 -242,-296 115,-41 232,-121 234,-298 0,-193 -166,-308 -440,-308 -115,0 -248,17 -378,52 -33,22 -59,94 -61,143l0 2c24,-4 78,-14 115,-16 -4,31 -15,105 -29,205 -20,139 -57,398 -94,644l0 0c-12,82 -24,164 -36,238 113,27 243,48 354,48 263,0 488,-91 556,-286l0 0zm-1260 0l0 0c14,-160 28,-319 49,-476 22,-178 52,-355 95,-531l0 0 1 0 0 -1c4,-19 11,-37 18,-54 8,-18 17,-34 27,-49 51,-78 135,-126 232,-114 174,22 347,48 519,81 172,33 343,73 512,123l0 0 3 1 1 0c18,6 36,13 52,21 17,8 33,17 47,27 73,53 117,135 115,233 -1,21 -2,29 -3,40 0,7 -1,16 -2,33l0 1c-15,11 -30,22 -46,34l0 1 0 0 -3 2 -1 1c-23,21 -44,43 -64,65 -19,23 -38,47 -54,72 -84,127 -125,276 -128,433l0 1 0 0 1 45 0 1 0 0 1 9 0 1c4,40 10,77 19,112 11,40 26,77 48,116 0,1 1,1 1,2l0 0 0 0c13,17 25,32 38,46 13,14 27,28 43,41 0,1 1,1 1,2l0 0 6 3c-31,43 -66,74 -105,94l0 0c-41,20 -87,29 -140,27l-1 0c-50,-2 -101,-5 -151,-7 -50,-3 -100,-7 -151,-10 -258,-19 -514,-47 -770,-85l0 0 0 0 0 0 -1 0c-19,-3 -37,-8 -54,-14 -17,-7 -33,-15 -47,-25 -76,-51 -121,-143 -113,-242l5 -60zm650 0l0 0c13,-97 31,-228 44,-313 24,-4 51,-6 71,-6 132,0 237,72 237,206l0 2c-1,42 -11,79 -28,111l0 0c-41,77 -125,121 -221,121 -41,0 -92,-4 -115,-12 1,-21 6,-61 12,-109zm368 -687c0,122 -84,191 -187,206 -39,6 -96,8 -117,6 12,-90 37,-279 51,-384 25,-4 50,-2 68,-2 107,0 185,63 185,172l0 2z"/>
   <path fill="#008BC8" d="M217 1717l386 0c-12,82 -24,164 -36,238 113,27 243,48 354,48 263,0 488,-91 556,-286l112 0c4,40 10,77 19,112 11,40 26,77 48,116 0,1 1,1 1,2l0 0 0 0c13,17 25,32 38,46 13,14 27,28 43,41 0,1 1,1 1,2l0 0 6 3c-31,43 -66,74 -105,94l0 0c-41,20 -87,29 -140,27l-1 0c-50,-2 -101,-5 -151,-7 -50,-3 -100,-7 -151,-10 -258,-19 -514,-47 -770,-85l0 0 0 0 0 0 -1 0c-19,-3 -37,-8 -54,-14 -17,-7 -33,-15 -47,-25 -76,-51 -121,-143 -113,-242l5 -60zm650 0l324 0c-41,77 -125,121 -221,121 -41,0 -92,-4 -115,-12 1,-21 6,-61 12,-109z"/>
   <path fill="#FEFEFE" fill-rule="nonzero" d="M611 884c24,-4 78,-14 115,-16 -4,31 -15,105 -29,205 -27,185 -84,586 -130,882 113,27 243,48 354,48 314,0 575,-130 577,-414 0,-135 -65,-240 -242,-296 115,-41 232,-121 234,-298 0,-193 -166,-308 -440,-308 -115,0 -248,17 -378,52 -33,22 -59,94 -61,143l0 2zm1455 -184c-21,47 -76,114 -155,194 -17,-72 -60,-132 -119,-175 -16,-11 -33,-22 -52,-31 -17,-8 -36,-16 -56,-22l-1 0 -3 -1 0 0 -1 0c-170,-50 -342,-91 -515,-124 -173,-34 -347,-60 -521,-82 -110,-13 -205,41 -263,129 -12,17 -21,35 -30,54 -8,19 -15,38 -20,59l0 1 0 0 0 0 0 0c-43,177 -74,355 -97,534 -23,180 -39,360 -53,539 -7,78 16,151 60,208 -40,8 -75,9 -103,3l0 0 0 -1 0 -1 -1 -1 0 -1 -1 -2 0 0 -1 -2 0 -2 -1 -2 -2 -4 0 0 0 -2 0 0 -1 -2c-7,-22 -11,-44 -13,-68l0 0 -1 -2 0 0 0 -2 0 -1 0 -2 0 0 0 -2 0 0 0 -2 0 0 0 -3 0 0 0 -2 0 0 0 -2 0 0 0 -2 0 0 0 -3 0 0 0 -2 0 0 0 -2 0 0 0 -3 0 0 0 -2 0 0 0 -2 0 0 0 -3 0 0 0 -2 0 0 0 -2 0 0 0 -3 0 0 0 -2 0 0 0 -2 0 0 0 -3 1 -2c18,-216 39,-430 66,-643 27,-213 60,-426 103,-638 18,-88 46,-150 114,-197 19,-14 42,-26 68,-37 325,27 675,74 1005,118 108,14 213,28 318,41l1 0c28,4 54,10 79,19 24,8 46,19 66,31l3 2 3 2 0 0 3 2 0 0 3 2 0 0 3 1 0 0 3 2 0 0 2 2 0 0 3 2 0 0 3 2 0 0 2 2 0 0 3 3 0 0 3 2 0 0 2 2 0 0 3 2 2 2 0 0 3 2 0 0 2 2 0 0 3 3 0 0 2 2 0 0 3 2 0 0 2 3 0 0 2 2 0 0 3 2 0 0 2 3 0 0 2 2 0 0 0 1 2 1 2 3 0 0 3 2 0 0 2 3 0 0 2 2 0 0 2 3 0 0 2 2 0 0 2 3 0 0 2 2 0 1 2 2 0 0 2 3 0 0 2 2 0 0 1 3 0 0 2 3 0 0 2 2 0 0 2 3 0 0 1 3 1 0 1 3 0 0 2 2 0 0 1 3 1 0 1 3 0 0 2 3 0 0 1 3 0 0 2 2 0 1 1 2 0 0 2 3c6,13 11,26 16,39zm-847 906c-2,144 -113,232 -249,232 -41,0 -92,-4 -115,-12 4,-62 37,-294 56,-422 24,-4 51,-6 71,-6 132,0 237,72 237,206l0 2zm16 -576c0,122 -84,191 -187,206 -39,6 -96,8 -117,6 12,-90 37,-279 51,-384 25,-4 50,-2 68,-2 107,0 185,63 185,172l0 2z"/>
   <g>
    <path fill="#009EE0" fill-rule="nonzero" d="M2714 1717l16 0 0 2c44,-264 192,-437 305,-437 63,0 72,77 72,122 0,93 -29,221 -94,313l21 0c-37,55 -85,98 -146,117 -54,17 -109,15 -160,-12 -10,14 -32,5 -29,-12 3,-18 -57,-30 -37,-55 14,-17 33,5 44,13 2,-17 5,-34 8,-51zm549 0l0 0c58,-102 89,-225 89,-353l0 0c0,-119 -53,-275 -197,-275 0,0 0,0 0,0 -167,0 -307,130 -392,262 -12,18 -39,0 -28,-18 11,-16 23,-33 37,-50 35,-194 63,-389 89,-584 13,-100 -182,-49 -224,-40 -3,72 -15,146 -25,218 -8,56 -14,113 -21,170 -28,224 -63,447 -96,670l0 0c-8,50 -15,100 -23,150 80,87 212,119 324,119l0 0c216,0 376,-109 467,-269z"/>
    <path fill="#009EE0" fill-rule="nonzero" d="M1946 1717l1 0c-3,-24 -2,-49 -1,-74 -10,2 -67,17 -68,-10 -1,-9 6,-17 15,-17 23,-1 47,-7 70,-7 8,-1 110,-13 110,-16 160,-35 366,-121 367,-313 1,-136 -114,-194 -236,-193 -320,4 -508,338 -474,630l0 0c1,8 2,16 4,24 4,24 10,48 17,69 38,108 124,174 265,174l0 0 0 0 0 0c57,0 134,-10 202,-35 12,-5 22,-9 33,-14 53,-24 98,-59 119,-107l1 0 0 0 0 0c2,-6 5,-13 6,-19 2,-7 4,-15 5,-22 4,-27 2,-57 -9,-79 -15,12 -30,23 -38,29l0 0 0 0 -1 0 -1 1c-9,6 -17,12 -26,17 -10,6 -19,11 -29,16 -52,26 -112,45 -177,50 -59,4 -101,-9 -127,-39 -14,-17 -24,-39 -28,-65zm33 -210c-3,21 -35,16 -32,-6l2 -8c-15,1 -63,12 -63,-14 0,-25 53,-17 69,-19 24,-106 92,-254 216,-254l0 0c98,0 98,108 58,165 -25,37 -64,63 -105,80 -45,19 -93,31 -142,38 -1,6 -2,12 -3,18z"/>
    <path fill="#2E2E2D" fill-rule="nonzero" d="M2740 1762l-5 27c26,15 53,23 83,23l0 0c192,0 273,-253 273,-408 0,0 0,-1 0,-1 0,-34 -6,-105 -54,-105 0,0 -2,0 -2,0 -75,0 -169,86 -232,229 -33,75 -51,154 -63,235zm-12 60c-10,14 -32,5 -29,-12 3,-18 -57,-30 -37,-55 14,-17 33,5 44,13 13,-87 31,-172 67,-254 43,-97 139,-248 264,-248l0 0c84,0 90,138 86,138 0,154 -72,379 -235,430 -54,17 -109,15 -160,-12zm133 -1123c13,-100 -182,-49 -224,-40 -3,72 -15,145 -25,218 -8,57 -14,113 -21,170 -35,274 -79,547 -119,820 80,87 212,119 324,119l0 0c353,0 556,-292 556,-622l0 0c0,-119 -53,-275 -197,-275 0,0 0,0 0,0 -167,0 -307,130 -392,262 -12,18 -39,0 -28,-18 11,-16 23,-33 37,-50 35,-194 63,-389 89,-584zm-47 534c57,-64 118,-114 199,-148l0 0c112,-45 241,-47 316,69 40,61 56,138 56,210l0 0c-1,173 -52,336 -151,456 -110,134 -269,199 -440,199 -116,0 -251,-34 -336,-120 0,0 -23,-4 -21,-19 3,-15 -52,-39 -28,-59 15,-13 27,5 35,15 53,-349 102,-697 146,-1047 9,-36 12,-85 14,-123 -14,3 -56,20 -60,-5 -4,-24 45,-25 60,-28 2,-14 21,-19 29,-7 73,-15 279,-61 260,77 -24,177 -50,354 -79,530z"/>
    <path fill="#009EE0" fill-rule="nonzero" d="M3475 1127c0,6 0,14 0,22 1,48 -1,111 -5,147l0 1c-3,26 -6,57 -11,91 -4,35 -9,70 -13,104 -23,166 -54,358 -75,482 91,-5 223,-19 236,-92l1 -1c7,-42 15,-82 24,-118 8,-36 17,-70 26,-101 48,-161 103,-254 151,-303 34,-33 69,-49 106,-50 25,0 51,6 76,18 23,-34 47,-75 63,-114 12,-29 20,-57 19,-80 -1,-19 -8,-35 -24,-43 -11,-6 -26,-9 -47,-9 -3,0 -7,0 -12,1 -11,1 -22,3 -34,6 -13,3 -26,8 -39,15 -67,32 -144,106 -213,256 -2,5 -6,8 -11,9l0 0 -2 0 -2 0 0 0 0 0 -32 1c-9,0 -17,-7 -17,-16 0,-9 7,-17 16,-17l14 0 2 -12c8,-44 20,-115 15,-169 -4,-40 -19,-70 -57,-66l-1 0c-10,1 -20,3 -30,5 -11,2 -22,4 -34,7 -31,7 -63,17 -90,26z"/>
    <path fill="#009EE0" fill-rule="nonzero" d="M4889 1805c-4,4 -9,9 -13,16 -5,9 -9,21 -13,33 -7,29 -7,64 7,87l0 0 1 0 0 0c3,5 7,9 12,14 5,5 11,9 18,14 38,24 100,42 167,42l0 0 0 0c116,0 206,-37 268,-93 60,-54 93,-125 93,-194l0 0 0 0c0,-41 -9,-75 -29,-108 -20,-33 -52,-64 -98,-98l0 0c-67,-47 -108,-78 -133,-102 -27,-27 -35,-47 -35,-71l0 0 0 0c0,-31 14,-54 37,-69 20,-14 49,-21 78,-21l0 0 1 0c21,0 39,2 56,5 17,4 33,9 49,14 5,2 10,3 14,3 14,1 27,-7 38,-19 12,-13 22,-32 29,-51 4,-11 7,-22 9,-33 -4,-3 -7,-5 -11,-7 -50,-35 -109,-53 -164,-53l-2 0 0 0 0 0c-100,0 -183,33 -242,86 -58,52 -91,123 -91,201l0 0 0 0c0,37 7,72 27,106 19,35 51,70 100,106l0 0c61,44 100,73 123,96l1 1c26,25 34,45 34,66 0,7 -1,14 -3,21l0 1c-5,17 -16,34 -32,47l-1 0c-16,13 -37,21 -61,21 -10,0 -20,-1 -31,-4l-203 -57z"/>
    <path fill="#009EE0" fill-rule="nonzero" d="M4578 1320c-2,11 -3,22 -5,32 -2,16 -5,32 -8,49l0 0 0 0 0 1c-8,39 -18,76 -30,110 -11,35 -24,66 -39,95 -74,152 -179,230 -247,230l-2 0 -1 0 0 0c-25,0 -45,-13 -59,-39 -11,-23 -17,-56 -17,-98l-1 0 0 -1 0 0 1 0c0,-48 7,-102 23,-155 2,-9 5,-18 8,-27 16,-45 38,-89 67,-129l0 0 0 0 0 -1c34,-46 70,-74 107,-91 38,-18 76,-23 113,-23l0 0 0 0c8,0 19,1 31,2 6,1 12,2 17,3l1 0c31,6 65,14 78,19 9,3 13,12 10,21 -3,8 -12,13 -21,10 -5,-2 -14,-5 -26,-8zm218 -135c-81,-17 -196,-39 -268,-39 -66,0 -135,7 -202,30 -67,22 -132,60 -191,121l-1 0 0 0c-19,19 -36,40 -52,61 -15,21 -29,42 -41,65 -63,113 -82,234 -82,313l0 1 0 1 0 0c0,89 17,156 47,199 28,41 69,62 119,62l0 0 0 0 0 0 0 0c56,0 111,-15 162,-39 13,-6 25,-13 37,-20 61,-37 114,-89 151,-145l0 0 0 0c1,-1 3,-3 5,-6 0,-5 1,-10 2,-15 2,-11 4,-21 7,-29 3,-10 8,-17 15,-21 1,-1 2,-1 3,-2l1 0 0 0 2 -1c20,-4 30,2 33,16 4,17 -18,47 -32,65 -6,52 -5,122 -3,142 5,34 18,54 40,60 27,7 67,-1 124,-23l1 0c6,-3 17,-8 29,-14l0 -3c1,-63 5,-155 11,-211l0 0 0 0 0 -1 0 0c3,-23 7,-52 11,-85 4,-32 8,-65 13,-97 19,-143 43,-302 59,-385z"/>
    <path fill="#008BC8" fill-rule="nonzero" d="M5192 1717l237 0c0,2 0,5 0,7l0 0 0 0c0,69 -33,140 -93,194 -62,56 -152,93 -268,93l0 0 0 0c-67,0 -129,-18 -167,-42 -7,-5 -13,-9 -18,-14 -5,-5 -9,-9 -12,-14l0 0 -1 0 0 0c-14,-23 -14,-58 -7,-87 4,-12 8,-24 13,-33 4,-7 9,-12 13,-16l203 57c11,3 21,4 31,4 24,0 45,-8 61,-21l1 0c16,-13 27,-30 32,-47l0 -1c2,-7 3,-14 3,-21 0,-19 -7,-37 -28,-59z"/>
    <path fill="#008BC8" fill-rule="nonzero" d="M3959 1717l211 0c1,34 8,61 17,81 14,26 34,39 59,39l0 0 1 0 2 0c49,0 117,-40 180,-120l288 0c-1,13 -3,24 -4,35l0 0 0 1 0 0 0 0c-6,56 -10,148 -11,211l0 3c-12,6 -23,11 -29,14l-1 0c-57,22 -97,30 -124,23 -22,-6 -35,-26 -40,-60 -2,-20 -3,-90 3,-142 14,-18 36,-48 32,-65 -3,-14 -13,-20 -33,-16l-2 1 0 0 -1 0c-1,1 -2,1 -3,2 -7,4 -12,11 -15,21 -3,8 -5,18 -7,29 -1,5 -2,10 -2,15 -2,3 -4,5 -5,6l0 0 0 0c-37,56 -90,108 -151,145 -12,7 -24,14 -37,20 -51,24 -106,39 -162,39l0 0 0 0 0 0 0 0c-50,0 -91,-21 -119,-62 -30,-43 -47,-110 -47,-199l0 0 0 -1 0 -1c0,-6 0,-13 0,-19z"/>
    <path fill="#008BC8" fill-rule="nonzero" d="M3413 1717l230 0c-4,15 -8,30 -11,46 -9,36 -17,76 -24,118l-1 1c-13,73 -145,87 -236,92 12,-70 27,-161 42,-257z"/>
    <path fill="#008BC8" fill-rule="nonzero" d="M2495 1717l219 0c-3,17 -6,34 -8,51 -11,-8 -30,-30 -44,-13 -20,25 40,37 37,55 -3,17 19,26 29,12 51,27 106,29 160,12 61,-19 109,-62 146,-117l229 0c-91,160 -251,269 -467,269l0 0c-112,0 -244,-32 -324,-119 8,-50 15,-100 23,-150z"/>
    <path fill="#008BC8" fill-rule="nonzero" d="M1730 1717l216 0c4,26 14,48 28,65 26,30 68,43 127,39 65,-5 125,-24 177,-50 10,-5 19,-10 29,-16 9,-5 17,-11 26,-17l1 -1 1 0 0 0 0 0c8,-6 23,-17 38,-29 11,22 13,52 9,79 -1,7 -3,15 -5,22 -1,6 -4,13 -6,19l0 0 0 0 -1 0c-21,48 -66,83 -119,107 -11,5 -21,9 -33,14 -68,25 -145,35 -202,35l0 0 0 0 0 0c-141,0 -227,-66 -265,-174 -7,-21 -13,-45 -17,-69 -2,-8 -3,-16 -4,-24z"/>
    <path fill="#2E2E2D" fill-rule="nonzero" d="M4578 1320c-2,11 -3,22 -5,32 -2,16 -5,32 -8,49l0 0 0 0 0 1c-8,39 -18,76 -30,110 -11,35 -24,66 -39,95 -74,152 -179,230 -247,230l-2 0 -1 0 0 0c-25,0 -45,-13 -59,-39 -11,-23 -17,-56 -17,-98l-1 0 0 -1 0 0 1 0c0,-48 7,-102 23,-155 2,-9 5,-18 8,-27 16,-45 38,-89 67,-129l0 0 0 0 0 -1c34,-46 70,-74 107,-91 38,-18 76,-23 113,-23l0 0 0 0c8,0 19,1 31,2 6,1 12,2 17,3l1 0c31,6 65,14 78,19 9,3 13,12 10,21 -3,8 -12,13 -21,10 -5,-2 -14,-5 -26,-8zm-37 28c2,-12 3,-23 5,-35 -5,-1 -10,-2 -15,-3l0 0c-6,-1 -12,-2 -17,-2 -10,-2 -20,-3 -26,-3l0 0 0 0c-33,0 -67,5 -99,20 -32,15 -64,41 -95,82l0 0c-27,37 -47,79 -62,121 -3,8 -6,17 -8,25 -15,51 -22,101 -22,146l0 0 0 0 0 1 0 0c0,37 5,65 14,83 8,14 18,22 30,22l0 0 1 0 2 0c58,0 150,-72 218,-212 14,-27 26,-58 37,-91 12,-33 21,-69 29,-107l0 0 0 0c3,-15 6,-31 8,-47zm309 -185c9,1 15,10 13,19 -2,9 -11,14 -19,13l-1 0 -1 -1 -15 -3c-15,83 -39,241 -58,384 -5,34 -9,67 -13,96 -4,28 -7,56 -10,84l0 1 0 1c-7,51 -10,134 -11,194 16,-7 32,-16 47,-23 15,-8 29,-15 41,-21 8,-4 18,0 22,8 4,8 1,17 -7,21 -8,4 -24,12 -41,21 -20,10 -42,21 -62,31l0 8c0,9 0,17 1,22l0 1c1,9 -6,17 -15,18 -9,0 -17,-6 -17,-15l0 -1c-1,-5 -1,-11 -1,-18 -8,3 -14,6 -19,8l0 0 0 0c-64,25 -111,34 -144,25 -37,-10 -57,-39 -64,-88 -2,-15 -3,-56 -1,-98 -37,45 -83,86 -135,118 -12,7 -26,15 -39,21 -55,27 -115,43 -176,43l0 0 0 0 0 0 0 0c-61,-1 -111,-26 -146,-76 -34,-49 -53,-122 -53,-218l0 0 0 -1 0 -1c0,-83 20,-210 86,-329 13,-23 27,-46 44,-69 16,-22 35,-43 55,-64l0 0c63,-65 133,-105 204,-129 71,-24 144,-32 213,-32 74,0 192,23 274,40l1 -8c2,-9 11,-14 20,-12 9,2 14,11 12,19l-1 7 14 3 2 0 0 1zm-54 22c-81,-17 -196,-39 -268,-39 -66,0 -135,7 -202,30 -67,22 -132,60 -191,121l-1 0 0 0c-19,19 -36,40 -52,61 -15,21 -29,42 -41,65 -63,113 -82,234 -82,313l0 1 0 1 0 0c0,89 17,156 47,199 28,41 69,62 119,62l0 0 0 0 0 0 0 0c56,0 111,-15 162,-39 13,-6 25,-13 37,-20 61,-37 114,-89 151,-145l0 0 0 0c1,-1 3,-3 5,-6 0,-5 1,-10 2,-15 2,-11 4,-21 7,-29 3,-10 8,-17 15,-21 1,-1 2,-1 3,-2l1 0 0 0 2 -1c20,-4 30,2 33,16 4,17 -18,47 -32,65 -6,52 -5,122 -3,142 5,34 18,54 40,60 27,7 67,-1 124,-23l1 0c6,-3 17,-8 29,-14l0 -3c1,-63 5,-155 11,-211l0 0 0 0 0 -1 0 0c3,-23 7,-52 11,-85 4,-32 8,-65 13,-97 19,-143 43,-302 59,-385z"/>
    <path fill="#2E2E2D" fill-rule="nonzero" d="M2016 1984l0 0 0 0 0 0c57,0 134,-10 202,-35 12,-5 22,-9 33,-14 53,-24 98,-59 119,-107 0,0 1,0 1,0 15,-36 20,-86 2,-120 -80,63 -165,104 -272,113 -59,4 -101,-9 -127,-39 -34,-40 -29,-90 -28,-139 -10,2 -67,17 -68,-10 -1,-9 6,-17 15,-17 23,-1 47,-7 70,-7 8,-1 110,-13 110,-16 160,-35 366,-121 367,-313 1,-136 -114,-194 -236,-193 -328,4 -518,357 -470,654 4,24 10,48 17,69 38,108 124,174 265,174zm249 -19c-12,5 -24,10 -35,14 -73,27 -153,38 -214,38l0 0 0 0 0 0c-157,0 -253,-74 -295,-196 -9,-23 -15,-48 -19,-75 -54,-328 171,-708 531,-691 131,6 240,86 240,225 -2,211 -218,307 -393,345 -1,-1 -95,14 -102,15 1,41 -9,86 21,121 19,22 51,31 99,27 100,-8 179,-46 253,-105 -10,-15 9,-33 24,-22 9,7 23,-33 42,-11 13,16 -9,29 -19,37 18,30 21,69 16,104 -2,18 -7,35 -14,51 -25,55 -76,95 -135,123zm-286 -458c-3,21 -35,16 -32,-6l2 -8c-15,1 -63,12 -63,-14 0,-25 53,-17 69,-19 24,-106 92,-254 216,-254l0 0c98,0 98,108 58,165 -25,37 -64,63 -105,80 -45,19 -93,31 -142,38 -1,6 -2,12 -3,18zm17 -75c-2,8 -4,15 -6,23 72,-12 168,-38 213,-102 18,-27 29,-67 8,-96 -10,-13 -24,-19 -40,-19 0,0 -2,1 -2,0 -93,0 -150,117 -173,194z"/>
    <path fill="#2E2E2D" fill-rule="nonzero" d="M3440 1104c0,-9 6,-17 15,-18 6,-1 12,3 16,8 27,-9 57,-18 86,-25 12,-3 24,-5 36,-7 11,-2 22,-4 33,-5l0 0c63,-7 87,37 93,95 4,37 0,79 -5,117 62,-108 129,-167 189,-196 15,-7 30,-13 44,-16 15,-4 28,-7 41,-8 4,0 9,0 14,0 26,0 46,4 62,12 28,15 41,40 41,71 1,28 -7,60 -21,93 -16,40 -41,82 -64,118l6 4c8,4 10,15 5,22 -5,8 -15,10 -23,5 -2,-2 -4,-3 -7,-4 -15,21 -29,39 -39,50 -6,6 -17,7 -23,1 -7,-7 -7,-17 -1,-23 8,-10 21,-25 34,-44 -19,-8 -38,-12 -56,-12 -29,1 -57,13 -83,40 -46,46 -98,134 -143,289 -9,30 -18,64 -26,100 -9,36 -17,75 -24,116l-1 0c-17,99 -174,115 -274,119l-2 9c-2,9 -10,15 -19,14 -9,-2 -15,-10 -13,-19l0 -3 -7 1 -16 0c-9,0 -17,-7 -17,-16 0,-9 7,-16 16,-16l16 -1 14 0c22,-123 53,-318 76,-487 6,-38 10,-73 14,-104 4,-32 8,-62 11,-91l0 0c3,-35 5,-97 5,-143l-1 -12c-11,4 -21,8 -28,11 -8,4 -18,0 -22,-9 -3,-8 1,-17 9,-21 10,-4 23,-9 39,-15l0 0zm35 23c0,6 0,14 0,22 1,48 -1,111 -5,147l0 1c-3,26 -6,57 -11,91 -4,35 -9,70 -13,104 -23,166 -54,358 -75,482 91,-5 223,-19 236,-92l1 -1c7,-42 15,-82 24,-118 8,-36 17,-70 26,-101 48,-161 103,-254 151,-303 34,-33 69,-49 106,-50 25,0 51,6 76,18 23,-34 47,-75 63,-114 12,-29 20,-57 19,-80 -1,-19 -8,-35 -24,-43 -11,-6 -26,-9 -47,-9 -3,0 -7,0 -12,1 -11,1 -22,3 -34,6 -13,3 -26,8 -39,15 -67,32 -144,106 -213,256 -2,5 -6,8 -11,9l0 0 -2 0 -2 0 0 0 0 0 -32 1c-9,0 -17,-7 -17,-16 0,-9 7,-17 16,-17l14 0 2 -12c8,-44 20,-115 15,-169 -4,-40 -19,-70 -57,-66l-1 0c-10,1 -20,3 -30,5 -11,2 -22,4 -34,7 -31,7 -63,17 -90,26z"/>
    <path fill="#2E2E2D" fill-rule="nonzero" d="M4908 1769c5,2 10,6 11,10l182 51c7,2 15,3 22,3 16,0 30,-5 41,-13l0 -1c11,-8 19,-20 22,-31l0 0c1,-4 2,-8 2,-12 0,-12 -7,-25 -26,-44l0 0 0 0 0 0c-22,-21 -59,-50 -119,-92l0 0 0 0c-53,-40 -88,-78 -110,-117 -22,-39 -31,-79 -31,-122l0 0 0 0c0,-87 38,-167 102,-226 65,-57 156,-93 264,-93l0 0 0 0 2 0c62,0 127,20 183,58l1 1c3,-2 6,-3 10,-3 9,0 16,8 16,17 0,1 -1,3 -1,5l4 3 1 1c10,9 20,18 29,28l0 0c6,7 5,17 -1,23 -7,6 -17,6 -23,-1l0 0 0 0c-5,-6 -11,-11 -16,-16 -2,6 -4,13 -7,20 -8,23 -20,45 -35,62 -17,19 -38,30 -63,30 -8,-1 -16,-2 -24,-5 -14,-5 -28,-10 -44,-12 -15,-3 -31,-5 -50,-5l-1 0 0 0c-23,0 -45,5 -60,15 -14,9 -23,23 -23,42l0 0 0 0c0,15 6,28 26,48 23,22 63,52 129,99l0 0 0 0c50,36 85,70 107,107 23,38 34,78 34,125l0 0 -1 0c0,78 -36,158 -104,219 -67,60 -165,101 -289,101l0 0 0 0c-73,0 -141,-20 -184,-48 -9,-5 -17,-11 -24,-17 -6,-7 -12,-13 -16,-19l-1 -1 0 0 0 0 0 0 0 0 0 -1c-20,-31 -21,-75 -11,-112 4,-15 9,-30 16,-41 2,-4 4,-7 7,-10l-34 -9c-9,-3 -14,-12 -11,-20 2,-9 11,-14 20,-12l56 16c7,-2 14,-2 22,-1zm-19 36c-4,4 -9,9 -13,16 -5,9 -9,21 -13,33 -7,29 -7,64 7,87l0 0 1 0 0 0c3,5 7,9 12,14 5,5 11,9 18,14 38,24 100,42 167,42l0 0 0 0c116,0 206,-37 268,-93 60,-54 93,-125 93,-194l0 0 0 0c0,-41 -9,-75 -29,-108 -20,-33 -52,-64 -98,-98l0 0c-67,-47 -108,-78 -133,-102 -27,-27 -35,-47 -35,-71l0 0 0 0c0,-31 14,-54 37,-69 20,-14 49,-21 78,-21l0 0 1 0c21,0 39,2 56,5 17,4 33,9 49,14 5,2 10,3 14,3 14,1 27,-7 38,-19 12,-13 22,-32 29,-51 4,-11 7,-22 9,-33 -4,-3 -7,-5 -11,-7 -50,-35 -109,-53 -164,-53l-2 0 0 0 0 0c-100,0 -183,33 -242,86 -58,52 -91,123 -91,201l0 0 0 0c0,37 7,72 27,106 19,35 51,70 100,106l0 0c61,44 100,73 123,96l1 1c26,25 34,45 34,66 0,7 -1,14 -3,21l0 1c-5,17 -16,34 -32,47l-1 0c-16,13 -37,21 -61,21 -10,0 -20,-1 -31,-4l-203 -57z"/>
   </g>
   <path fill="#2E2E2D" d="M2098 961l1 0c9,-2 18,4 20,12 2,9 -4,18 -13,20 -48,10 -91,24 -131,44 -41,19 -79,44 -117,74l-2 2 -1 1c-22,20 -42,41 -61,62 -19,22 -36,45 -52,69 -80,121 -120,264 -123,416l1 43 0 0c4,42 10,80 20,117 10,36 24,72 44,108 11,15 22,29 34,42 12,13 25,25 40,38 17,11 33,20 50,28 17,8 34,15 53,22l41 10c9,2 14,10 12,19 -2,9 -11,14 -19,12l-7 -1c-7,12 -14,20 -19,26l0 0c-1,2 -2,3 -3,4l0 0 -3 4 0 1 0 0c-10,12 -20,25 -31,36 -11,11 -23,22 -35,32 -63,48 -144,75 -232,77 -203,2 -405,-2 -605,-15 -201,-12 -400,-33 -598,-63l-1 0 0 0c-25,-4 -48,-11 -70,-19 -22,-9 -42,-20 -61,-32 -99,-66 -157,-182 -146,-308 18,-214 39,-429 67,-644 27,-214 60,-428 103,-640 20,-97 51,-165 128,-218 7,-5 15,-10 23,-15 -38,-3 -76,-6 -113,-8l-1 0c-9,-1 -16,-8 -16,-17 1,-9 9,-16 18,-16l1 0c55,4 112,8 169,13 73,-30 171,-54 306,-76 9,-1 17,5 19,13 1,9 -5,18 -14,19 -95,16 -171,32 -233,50 305,28 630,71 936,112 110,15 217,29 318,42l1 0c30,4 59,11 85,20 27,9 51,21 73,34 115,71 172,196 159,328 -3,37 -6,56 -9,78 -2,13 -4,26 -6,44zm-1481 -45l-1 1 0 -1c-2,1 -4,1 -5,1 -18,0 -33,-15 -33,-33l0 -1 0 -1 0 -1c2,-40 17,-92 40,-129 4,-6 8,-13 13,-19 1,-1 1,-1 2,-2 5,-6 11,-12 17,-16 0,-1 1,-2 2,-2l1 0c3,-3 7,-5 11,-6 55,-15 110,-26 164,-35l2 0c7,-1 18,-3 32,-4 65,-9 129,-13 188,-13l0 0 0 0 1 0 0 0c143,0 259,31 340,87 85,59 131,145 132,252l0 1 0 0 0 0 0 0 0 1c-2,97 -35,169 -84,221 -29,31 -62,55 -98,75 56,26 98,60 128,99 43,57 62,123 62,198l0 0 0 0c-2,218 -143,352 -345,411 -38,11 -79,20 -122,26 -42,6 -86,9 -131,9l0 0 -9 0c-1,0 -2,0 -3,0 -82,0 -173,-11 -261,-27 -17,-3 -34,-7 -50,-10l-1 0c-17,-4 -33,-7 -49,-11l0 0 0 0 0 0 0 0c-16,-4 -27,-20 -25,-37 42,-274 93,-628 122,-827l8 -54c10,-72 18,-128 23,-164 -20,3 -41,6 -57,9l0 0 0 0 -14 2 0 0 0 0zm-6 -32c24,-4 78,-14 115,-16 -4,31 -15,105 -29,205 -27,185 -84,586 -130,882 113,27 243,48 354,48 314,0 575,-130 577,-414 0,-135 -65,-240 -242,-296 115,-41 232,-121 234,-298 0,-193 -166,-308 -440,-308 -115,0 -248,17 -378,52 -33,22 -59,94 -61,143l0 2zm608 722c-2,144 -113,232 -249,232 -41,0 -92,-4 -115,-12 4,-62 37,-294 56,-422 24,-4 51,-6 71,-6 132,0 237,72 237,206l0 2zm16 -576c0,122 -84,191 -187,206 -39,6 -96,8 -117,6 12,-90 37,-279 51,-384 25,-4 50,-2 68,-2 107,0 185,63 185,172l0 2zm-49 580l0 0 0 -3 0 -1 0 -2 0 -1 0 0c0,-56 -21,-98 -57,-127 -36,-30 -88,-45 -146,-45l0 0 -1 0c-12,0 -27,1 -43,2 -13,90 -31,218 -42,308 -3,21 -5,39 -6,51l0 0 -1 8c3,1 6,1 9,1l0 0 10 1 0 0c19,2 41,3 60,3l0 0 1 0c84,0 157,-38 193,-104 7,-13 12,-27 16,-42 4,-15 7,-32 7,-49zm17 -579l0 0 0 -1 0 -2 0 0 0 0c0,-44 -16,-79 -42,-103 -27,-24 -65,-37 -111,-37l0 0 0 0c-2,0 -6,0 -14,0l0 0c-8,0 -16,0 -25,0 -7,56 -17,125 -25,190 -7,49 -13,96 -18,132 12,0 26,-1 40,-2 7,-1 13,-1 18,-2 5,-1 10,-1 16,-2l0 0 2 0c63,-9 118,-42 143,-97 5,-11 9,-22 11,-35 3,-13 5,-27 5,-41zm-1065 956c27,5 62,4 102,-4 -44,-57 -67,-130 -60,-208 14,-179 30,-359 53,-539 23,-179 54,-357 97,-534l0 0 0 0 0 0 0 -1c5,-21 12,-40 20,-59 9,-19 18,-37 30,-54 58,-88 153,-142 263,-129 174,22 348,48 521,82 173,33 345,74 515,124l1 0 0 0 3 1 1 0c20,6 39,14 56,22 19,9 36,20 52,31 59,43 102,103 119,175 79,-80 134,-147 155,-194 -22,-66 -66,-122 -129,-161 -20,-12 -42,-23 -66,-31 -25,-9 -51,-15 -79,-19l-1 0c-105,-13 -210,-27 -318,-41 -330,-44 -680,-91 -1005,-118 -26,11 -49,23 -68,37 -68,47 -96,109 -114,197 -43,212 -76,425 -103,638 -27,213 -48,427 -66,643 -5,50 3,98 21,142zm1607 52l-6 -3 0 0c0,-1 -1,-1 -1,-2 -16,-13 -30,-27 -43,-41 -13,-14 -25,-29 -38,-46l0 0 0 0c0,-1 -1,-1 -1,-2 -22,-39 -37,-76 -48,-116 -10,-38 -16,-79 -20,-122l0 0 0 -1 -1 -45 0 0 0 -1c3,-157 44,-306 128,-433 16,-25 35,-49 54,-72 20,-22 41,-44 64,-65l1 -1 3 -2 0 0 0 -1c16,-12 31,-23 46,-34l0 -1c1,-17 2,-26 2,-33 1,-11 2,-19 3,-40 2,-98 -42,-180 -115,-233 -14,-10 -30,-19 -47,-27 -16,-8 -34,-15 -52,-21l-1 0 -3 -1 0 0c-169,-50 -340,-90 -512,-123 -172,-33 -345,-59 -519,-81 -97,-12 -181,36 -232,114 -10,15 -19,31 -27,49 -7,17 -14,35 -18,54l0 1 -1 0 0 0c-43,176 -73,353 -95,531 -23,177 -39,356 -54,536 -8,99 37,191 113,242 14,10 30,18 47,25 17,6 35,11 54,14l1 0 0 0 0 0 0 0c256,38 512,66 770,85 51,3 101,7 151,10 50,2 101,5 151,7l1 0c53,2 99,-7 140,-27l0 0c39,-20 74,-51 105,-94z"/>
  </g>
 </g>
</svg>
